<svg width="24" height="26" viewBox="0 0 24 26" fill="none" xmlns="http://www.w3.org/2000/svg">
<path d="M7.05682 0C3.18324 0 0 3.31419 0 7.35698V17.6639C0 21.7022 3.17898 25.0208 7.05682 25.0208H16.9432C20.8168 25.0208 24 21.7066 24 17.6639V7.35698C24 3.31864 20.821 0 16.9432 0H7.05682ZM7.05682 2.27462H16.9432C19.6406 2.27462 21.8182 4.5448 21.8182 7.35698V17.6639C21.8182 20.476 19.6406 22.7462 16.9432 22.7462H7.05682C4.35938 22.7462 2.18182 20.476 2.18182 17.6639V7.35698C2.18182 4.5448 4.35938 2.27462 7.05682 2.27462ZM18.4432 4.76249C17.8935 4.76249 17.4545 5.22008 17.4545 5.79318C17.4545 6.36627 17.8935 6.82386 18.4432 6.82386C18.9929 6.82386 19.4318 6.36627 19.4318 5.79318C19.4318 5.22008 18.9929 4.76249 18.4432 4.76249ZM12 5.68655C8.39915 5.68655 5.45455 8.7564 5.45455 12.5104C5.45455 16.2644 8.39915 19.3343 12 19.3343C15.6009 19.3343 18.5455 16.2644 18.5455 12.5104C18.5455 8.7564 15.6009 5.68655 12 5.68655ZM12 7.96117C14.4247 7.96117 16.3636 9.98257 16.3636 12.5104C16.3636 15.0383 14.4247 17.0597 12 17.0597C9.57528 17.0597 7.63636 15.0383 7.63636 12.5104C7.63636 9.98257 9.57528 7.96117 12 7.96117Z" fill="white"/>
</svg>
