<svg width="22" height="15" viewBox="0 0 22 15" fill="none" xmlns="http://www.w3.org/2000/svg">
<path d="M10.5959 0.563429C9.45132 0.549515 8.47718 0.563429 7.92922 0.869502C7.56392 1.07123 7.28385 1.53034 7.45433 1.55121C7.66742 1.58599 8.14841 1.70425 8.40412 2.10075C8.73289 2.60855 8.72072 3.75633 8.72072 3.75633C8.72072 3.75633 8.90337 6.91444 8.27626 7.31094C7.84399 7.58224 7.25341 7.0327 5.97485 4.52151C5.32339 3.22765 4.83023 1.80163 4.83023 1.80163C4.83023 1.80163 4.7389 1.5373 4.56843 1.39817C4.36142 1.22427 4.07527 1.16862 4.07527 1.16862L1.02498 1.18949C1.02498 1.18949 0.568351 1.21036 0.403966 1.43295C0.251754 1.64164 0.391787 2.05206 0.391787 2.05206C0.391787 2.05206 2.77844 8.43089 5.48169 11.6447C7.95967 14.5941 10.7725 14.3993 10.7725 14.3993H12.0511C12.0511 14.3993 12.4346 14.3506 12.6295 14.1141C12.8121 13.8915 12.806 13.4741 12.806 13.4741C12.806 13.4741 12.7817 11.5194 13.5732 11.2273C14.3586 10.949 15.3571 13.1194 16.4225 13.9541C17.2323 14.5871 17.8472 14.448 17.8472 14.448L20.6966 14.3993C20.6966 14.3993 22.1822 14.295 21.4759 12.9524C21.4211 12.8481 21.068 11.9646 19.3632 10.156C17.5732 8.26394 17.8107 8.57002 19.966 5.29365C21.275 3.29722 21.7986 2.07988 21.6342 1.55121C21.4759 1.05732 20.5139 1.18949 20.5139 1.18949L17.3054 1.21036C17.3054 1.21036 17.0679 1.17557 16.8913 1.29383C16.7209 1.41208 16.6113 1.69033 16.6113 1.69033C16.6113 1.69033 16.0999 3.23461 15.424 4.54933C13.9994 7.3179 13.421 7.47094 13.1896 7.29703C12.6477 6.89357 12.7817 5.68319 12.7817 4.82758C12.7817 2.13553 13.1409 1.02254 12.0876 0.730378C11.7406 0.63299 11.4848 0.570384 10.5959 0.563429Z" fill="white"/>
</svg>
